{
 "cells": [
  {
   "cell_type": "code",
   "execution_count": 1,
   "metadata": {},
   "outputs": [],
   "source": [
    "import cv2"
   ]
  },
  {
   "cell_type": "code",
   "execution_count": 2,
   "metadata": {},
   "outputs": [],
   "source": [
    "def preprocess_frame(frame, blur_kernel_size=(5, 5)):\n",
    "    \"\"\"Preprocess the frame by converting to grayscale and applying Gaussian blur.\"\"\"\n",
    "    try:\n",
    "        frame = cv2.cvtColor(frame, cv2.COLOR_BGR2GRAY)\n",
    "    except cv2.error as e:\n",
    "        print(f\"Error converting frame to grayscale: {e}\")\n",
    "        print(f\"Frame shape: {frame.shape}, Frame type: {type(frame)}\")\n",
    "        return None\n",
    "    \n",
    "    frame = cv2.GaussianBlur(frame, blur_kernel_size, 0)\n",
    "\n",
    "    return frame"
   ]
  },
  {
   "cell_type": "code",
   "execution_count": 3,
   "metadata": {},
   "outputs": [],
   "source": [
    "from PIL import Image\n",
    "import imagehash\n",
    "\n",
    "def compute_frame_phash(gray_frame):\n",
    "    # Convert to PIL Image\n",
    "    pil_image = Image.fromarray(gray_frame)\n",
    "    \n",
    "    # Compute perceptual hash\n",
    "    phash = imagehash.phash(pil_image, hash_size=16, highfreq_factor=16)\n",
    "    \n",
    "    return phash"
   ]
  },
  {
   "cell_type": "code",
   "execution_count": 4,
   "metadata": {},
   "outputs": [],
   "source": [
    "def get_frame_hashes(video_path):\n",
    "    cap = cv2.VideoCapture(video_path)\n",
    "    phash=[]\n",
    "\n",
    "    fps = cap.get(cv2.CAP_PROP_FPS)\n",
    "    print(f'FPS : {fps:0.2f}')\n",
    "\n",
    "    while cap.isOpened():\n",
    "        ret, frame = cap.read()\n",
    "        if not ret:\n",
    "            break\n",
    "        frame = preprocess_frame(frame)\n",
    "        # frames.append(frame)\n",
    "\n",
    "        phash.append(compute_frame_phash(frame))\n",
    "\n",
    "    cap.release()\n",
    "    return phash"
   ]
  },
  {
   "cell_type": "code",
   "execution_count": 5,
   "metadata": {},
   "outputs": [],
   "source": [
    "VIDEO_ID=\"video1\""
   ]
  },
  {
   "cell_type": "code",
   "execution_count": 31,
   "metadata": {},
   "outputs": [
    {
     "name": "stdout",
     "output_type": "stream",
     "text": [
      "FPS : 30.00\n"
     ]
    }
   ],
   "source": [
    "# phash1 = get_frame_hashes('outputMerged.mp4') # previousVideo\n",
    "# phash1= get_frame_hashes('added_15_frames.mp4')\n",
    "phash1= get_frame_hashes('main_edited_copy_2.mp4')\n",
    "# Will be stored in db or text file.\n",
    "\n",
    "# TODO\n",
    "# phash1 = get_frame_hashes('outputMerged.mp4')\n",
    "# Here, we will fetch the previous frame hashes txt file. instead of processing the whole video.\n",
    "# and then store it in the phash1 array"
   ]
  },
  {
   "cell_type": "code",
   "execution_count": 24,
   "metadata": {},
   "outputs": [],
   "source": [
    "# Will be done while initial uploading.\n",
    "\n",
    "with open(f'{VIDEO_ID}/previous_hashes.txt', 'w') as file:\n",
    "    for item in phash1:\n",
    "        file.write(str(item) + \"\\n\")\n",
    "        \n",
    "    #TODO\n",
    "    # Should also upload to the server?"
   ]
  },
  {
   "cell_type": "code",
   "execution_count": 35,
   "metadata": {},
   "outputs": [
    {
     "name": "stdout",
     "output_type": "stream",
     "text": [
      "[300, 300, 85]\n"
     ]
    }
   ],
   "source": [
    "# Will be done while initial uploading.\n",
    "fps=30\n",
    "previous_length_of_streams=[]\n",
    "i=len(phash1)\n",
    "\n",
    "while i>=0 and i//(fps*10)!=0:\n",
    "    previous_length_of_streams.append(fps*10)\n",
    "    i-=(fps*10)\n",
    "\n",
    "if i%(fps*10)!=0:\n",
    "    previous_length_of_streams.append(i%(fps*10))\n",
    "\n",
    "print(previous_length_of_streams)"
   ]
  },
  {
   "cell_type": "code",
   "execution_count": 36,
   "metadata": {},
   "outputs": [],
   "source": [
    "with open(f'{VIDEO_ID}/previous_length_of_streams.txt', 'w') as file:\n",
    "    for item in previous_length_of_streams:\n",
    "        file.write(str(item) + \"\\n\")"
   ]
  },
  {
   "cell_type": "code",
   "execution_count": 37,
   "metadata": {},
   "outputs": [],
   "source": [
    "with open(f'{VIDEO_ID}/previous_length_of_streams.txt', 'r') as file:\n",
    "    previous_length_of_streams = [int(line.strip())  for line in file]"
   ]
  },
  {
   "cell_type": "code",
   "execution_count": 38,
   "metadata": {},
   "outputs": [],
   "source": [
    "with open(f'{VIDEO_ID}/previous_hashes.txt', 'r') as file:\n",
    "    # Read all lines and convert them to integers\n",
    "    phash1 = [imagehash.hex_to_hash(line.strip())  for line in file]"
   ]
  },
  {
   "cell_type": "code",
   "execution_count": 48,
   "metadata": {},
   "outputs": [
    {
     "name": "stdout",
     "output_type": "stream",
     "text": [
      "FPS : 30.00\n"
     ]
    }
   ],
   "source": [
    "# EDITED_VIDEO_NAME='deleted_15_frames.mp4'\n",
    "EDITED_VIDEO_NAME='added_15_frames.mp4'\n",
    "phash2= get_frame_hashes(EDITED_VIDEO_NAME)\n",
    "# Second video (edited version)"
   ]
  },
  {
   "cell_type": "code",
   "execution_count": 40,
   "metadata": {},
   "outputs": [],
   "source": [
    "def is_significantly_different(hash1, hash2, threshold=5):\n",
    "    return hash1 - hash2 > threshold"
   ]
  },
  {
   "cell_type": "code",
   "execution_count": 49,
   "metadata": {},
   "outputs": [
    {
     "name": "stdout",
     "output_type": "stream",
     "text": [
      "165 180 5.5 - 6.0\n",
      "6.0\n",
      "[]\n",
      "[(165, 179)]\n",
      "[]\n"
     ]
    }
   ],
   "source": [
    "# Detect changes\n",
    "i,j=0,0\n",
    "deleted=[]\n",
    "added=[]\n",
    "changedFrames=[]\n",
    "while i<len(phash1) and j<len(phash2):\n",
    "    currphash1=phash1[i]\n",
    "    currphash2=phash2[j]\n",
    "    if is_significantly_different(currphash1, currphash2):\n",
    "        flag=True\n",
    "        if (len(phash1)!=len(phash2)):\n",
    "            for k in range(1,60):\n",
    "                if i + k >= len(phash1):\n",
    "                    break\n",
    "                newphash1=phash1[i+k]\n",
    "                if newphash1==currphash2:\n",
    "                    if k+1<15: # doubt-----------------------------------------------------------\n",
    "                        break\n",
    "                    print(i, i+k, i/30, \"-\", (i+k)/30)\n",
    "                    deleted.append((i,i+k-1))\n",
    "                    i=i+k\n",
    "                    print(i/30)\n",
    "                    flag=False\n",
    "                    break\n",
    "            \n",
    "            if flag:\n",
    "                for k in range(1,60):\n",
    "                    if j + k >= len(phash2):\n",
    "                        break\n",
    "                    newphash2=phash2[j+k]\n",
    "                    if currphash1==newphash2:\n",
    "                        if k+1<15: # doubt-----------------------------------------------------------\n",
    "                            break\n",
    "                        print(j, j+k, j/30, \"-\", (j+k)/30)\n",
    "                        added.append((j,j+k-1))\n",
    "                        j=j+k\n",
    "                        print(j/30)\n",
    "                        flag=False\n",
    "                        break\n",
    "                \n",
    "        if flag:\n",
    "            changedFrames.append(j)\n",
    "            \n",
    "    i+=1\n",
    "    j+=1\n",
    "    \n",
    "print(deleted)\n",
    "print(added)\n",
    "print(changedFrames)"
   ]
  },
  {
   "cell_type": "code",
   "execution_count": 50,
   "metadata": {},
   "outputs": [],
   "source": [
    "changedSegments=set()"
   ]
  },
  {
   "cell_type": "code",
   "execution_count": 51,
   "metadata": {},
   "outputs": [
    {
     "name": "stdout",
     "output_type": "stream",
     "text": [
      "[300, 300, 85]\n",
      "set()\n"
     ]
    }
   ],
   "source": [
    "new_length_of_streams=previous_length_of_streams[:]\n",
    "\n",
    "# For deleted Frames\n",
    "for deletedFrame in deleted:\n",
    "    start=deletedFrame[0]\n",
    "    end=deletedFrame[1]\n",
    "\n",
    "    index=start//(fps*10)\n",
    "    changedSegments.add(index)\n",
    "    new_length_of_streams[index]-=end-start+1\n",
    "\n",
    "print(new_length_of_streams)\n",
    "print(changedSegments)"
   ]
  },
  {
   "cell_type": "code",
   "execution_count": 52,
   "metadata": {},
   "outputs": [
    {
     "name": "stdout",
     "output_type": "stream",
     "text": [
      "0 300\n",
      "[315, 300, 85]\n",
      "{0}\n"
     ]
    }
   ],
   "source": [
    "# For added frames\n",
    "for addedFrame in added:\n",
    "    start=addedFrame[0]\n",
    "    end=addedFrame[1]\n",
    "\n",
    "    index=start//(fps*10)\n",
    "    changedSegments.add(index)\n",
    "    print(index, previous_length_of_streams[index])\n",
    "    new_length_of_streams[index]+=end-start+1\n",
    "\n",
    "print(new_length_of_streams)\n",
    "print(changedSegments)"
   ]
  },
  {
   "cell_type": "code",
   "execution_count": 18,
   "metadata": {},
   "outputs": [
    {
     "name": "stdout",
     "output_type": "stream",
     "text": [
      "[300, 300, 70]\n",
      "set()\n"
     ]
    }
   ],
   "source": [
    "for frame in changedFrames:\n",
    "    index=frame//300\n",
    "    changedSegments.add(index)\n",
    "\n",
    "print(new_length_of_streams)\n",
    "print(changedSegments)"
   ]
  },
  {
   "cell_type": "code",
   "execution_count": 19,
   "metadata": {},
   "outputs": [],
   "source": [
    "import os\n",
    "import subprocess\n",
    "\n",
    "# Function to convert frames to time (seconds)\n",
    "def frames_to_time(frame_count, fps):\n",
    "    return round(frame_count / fps, 3)  # Round to 3 decimal places for better precision\n",
    "\n",
    "# Function to generate HLS segment for each frame range\n",
    "def generate_hls_segment(video_file, start_time, duration, output_dir, segment_num):\n",
    "    segment_path = os.path.join(output_dir, f\"segment_{segment_num}.ts\").replace(\"\\\\\", \"/\")\n",
    "    \n",
    "    cmd = [\n",
    "        \"ffmpeg\",\n",
    "        \"-y\",\n",
    "        \"-ss\", str(start_time),  # Start time\n",
    "        \"-i\", video_file,        # Input video file\n",
    "        \"-t\", str(duration),     # Duration of the segment\n",
    "        \"-c:v\", \"libx264\",      # Re-encode video with libx264\n",
    "        \"-c:a\", \"aac\",          # Re-encode audio with AAC\n",
    "        \"-strict\", \"experimental\",  # Allow experimental codecs\n",
    "        \"-force_key_frames\", \"expr:gte(t,n_forced*1)\",  # Force keyframes every second\n",
    "        \"-f\", \"mpegts\",         # Set output format to .ts\n",
    "        segment_path             # Output .ts file\n",
    "    ]\n",
    "    \n",
    "    # Run the command\n",
    "    try:\n",
    "        subprocess.run(cmd, check=True)\n",
    "        return segment_path\n",
    "    except subprocess.CalledProcessError as e:\n",
    "        print(f\"Error occurred: {e}\")\n",
    "        return None\n",
    "\n",
    "# Function to generate a playlist for all segments\n",
    "def generate_playlist(segment_durations, final_output_m3u8):\n",
    "    with open(final_output_m3u8, 'w') as outfile:\n",
    "        outfile.write('#EXTM3U\\n')  # HLS playlist header\n",
    "        \n",
    "        for idx, duration in enumerate(segment_durations):\n",
    "            # Add segment info to playlist\n",
    "            outfile.write(f'#EXTINF:{duration},\\n')\n",
    "            outfile.write(f\"segment_{idx}.ts\\n\")\n",
    "            outfile.write('#EXT-X-TARGETDURATION:' + str(max(segment_durations)) + '\\n')  \n",
    "\n",
    "# Main function to process the video based on frame ranges\n",
    "def create_combined_hls_stream(video_file, frame_ranges, fps, output_dir, final_output_m3u8):\n",
    "    if not os.path.exists(output_dir):\n",
    "        os.makedirs(output_dir)\n",
    "\n",
    "    start_frame = 0\n",
    "    segment_durations = []\n",
    "\n",
    "    # Loop through each frame range to create segments\n",
    "    for idx, frame_count in enumerate(frame_ranges):\n",
    "        start_time = frames_to_time(start_frame, fps)\n",
    "        duration = frames_to_time(frame_count, fps)\n",
    "        \n",
    "        # Generate HLS segment for this frame range\n",
    "        segment_path = generate_hls_segment(video_file, start_time, duration, output_dir, idx)\n",
    "        \n",
    "        if segment_path:\n",
    "            segment_durations.append(duration)\n",
    "        \n",
    "        # Update the start frame for the next segment\n",
    "        start_frame += frame_count\n",
    "\n",
    "    # Generate a playlist with exact durations\n",
    "    generate_playlist(segment_durations, final_output_m3u8)"
   ]
  },
  {
   "cell_type": "code",
   "execution_count": 47,
   "metadata": {},
   "outputs": [
    {
     "name": "stdout",
     "output_type": "stream",
     "text": [
      "[285, 300, 85]\n"
     ]
    },
    {
     "name": "stderr",
     "output_type": "stream",
     "text": [
      "ffmpeg version 6.0-6ubuntu1.1 Copyright (c) 2000-2023 the FFmpeg developers\n",
      "  built with gcc 13 (Ubuntu 13.2.0-4ubuntu3)\n",
      "  configuration: --prefix=/usr --extra-version=6ubuntu1.1 --toolchain=hardened --libdir=/usr/lib/x86_64-linux-gnu --incdir=/usr/include/x86_64-linux-gnu --arch=amd64 --enable-gpl --disable-stripping --enable-gnutls --enable-ladspa --enable-libaom --enable-libass --enable-libbluray --enable-libbs2b --enable-libcaca --enable-libcdio --enable-libcodec2 --enable-libdav1d --enable-libflite --enable-libfontconfig --enable-libfreetype --enable-libfribidi --enable-libglslang --enable-libgme --enable-libgsm --enable-libjack --enable-libmp3lame --enable-libmysofa --enable-libopenjpeg --enable-libopenmpt --enable-libopus --enable-libpulse --enable-librabbitmq --enable-librist --enable-librubberband --enable-libshine --enable-libsnappy --enable-libsoxr --enable-libspeex --enable-libsrt --enable-libssh --enable-libsvtav1 --enable-libtheora --enable-libtwolame --enable-libvidstab --enable-libvorbis --enable-libvpx --enable-libwebp --enable-libx265 --enable-libxml2 --enable-libxvid --enable-libzimg --enable-libzmq --enable-libzvbi --enable-lv2 --enable-omx --enable-openal --enable-opencl --enable-opengl --enable-sdl2 --disable-sndio --enable-libjxl --enable-pocketsphinx --enable-librsvg --enable-libvpl --disable-libmfx --enable-libdc1394 --enable-libdrm --enable-libiec61883 --enable-chromaprint --enable-frei0r --enable-libx264 --enable-libplacebo --enable-librav1e --enable-shared\n",
      "  libavutil      58.  2.100 / 58.  2.100\n",
      "  libavcodec     60.  3.100 / 60.  3.100\n",
      "  libavformat    60.  3.100 / 60.  3.100\n",
      "  libavdevice    60.  1.100 / 60.  1.100\n",
      "  libavfilter     9.  3.100 /  9.  3.100\n",
      "  libswscale      7.  1.100 /  7.  1.100\n",
      "  libswresample   4. 10.100 /  4. 10.100\n",
      "  libpostproc    57.  1.100 / 57.  1.100\n",
      "Input #0, mov,mp4,m4a,3gp,3g2,mj2, from 'deleted_15_frames.mp4':\n",
      "  Metadata:\n",
      "    major_brand     : isom\n",
      "    minor_version   : 512\n",
      "    compatible_brands: isomiso2avc1mp41\n",
      "    encoder         : https://clipchamp.com\n",
      "    comment         : Create videos with https://clipchamp.com/en/video-editor - free online video editor, video compressor, video converter.\n",
      "  Duration: 00:00:22.33, start: 0.000000, bitrate: 11664 kb/s\n",
      "  Stream #0:0[0x1](und): Video: h264 (Constrained Baseline) (avc1 / 0x31637661), yuv420p(progressive), 1920x1080 [SAR 1:1 DAR 16:9], 11464 kb/s, 30 fps, 30 tbr, 15360 tbn (default)\n",
      "    Metadata:\n",
      "      handler_name    : VideoHandler\n",
      "      vendor_id       : [0][0][0][0]\n",
      "  Stream #0:1[0x2](und): Audio: aac (LC) (mp4a / 0x6134706D), 44100 Hz, stereo, fltp, 192 kb/s (default)\n",
      "    Metadata:\n",
      "      handler_name    : SoundHandler\n",
      "      vendor_id       : [0][0][0][0]\n",
      "Stream mapping:\n",
      "  Stream #0:0 -> #0:0 (h264 (native) -> h264 (libx264))\n",
      "  Stream #0:1 -> #0:1 (aac (native) -> aac (native))\n",
      "Press [q] to stop, [?] for help\n",
      "[libx264 @ 0x5d897e66e900] using SAR=1/1\n",
      "[libx264 @ 0x5d897e66e900] using cpu capabilities: MMX2 SSE2Fast SSSE3 SSE4.2 AVX FMA3 BMI2 AVX2\n",
      "[libx264 @ 0x5d897e66e900] profile High, level 4.0, 4:2:0, 8-bit\n",
      "Output #0, mpegts, to 'video1/segment_0.ts':\n",
      "  Metadata:\n",
      "    major_brand     : isom\n",
      "    minor_version   : 512\n",
      "    compatible_brands: isomiso2avc1mp41\n",
      "    comment         : Create videos with https://clipchamp.com/en/video-editor - free online video editor, video compressor, video converter.\n",
      "    encoder         : Lavf60.3.100\n",
      "  Stream #0:0(und): Video: h264, yuv420p(progressive), 1920x1080 [SAR 1:1 DAR 16:9], q=2-31, 30 fps, 90k tbn (default)\n",
      "    Metadata:\n",
      "      handler_name    : VideoHandler\n",
      "      vendor_id       : [0][0][0][0]\n",
      "      encoder         : Lavc60.3.100 libx264\n",
      "    Side data:\n",
      "      cpb: bitrate max/min/avg: 0/0/0 buffer size: 0 vbv_delay: N/A\n",
      "  Stream #0:1(und): Audio: aac (LC), 44100 Hz, stereo, fltp, 128 kb/s (default)\n",
      "    Metadata:\n",
      "      handler_name    : SoundHandler\n",
      "      vendor_id       : [0][0][0][0]\n",
      "      encoder         : Lavc60.3.100 aac\n",
      "frame=  285 fps= 34 q=-1.0 Lsize=    2637kB time=00:00:09.49 bitrate=2274.3kbits/s speed=1.14x    \n",
      "video:2418kB audio:85kB subtitle:0kB other streams:0kB global headers:0kB muxing overhead: 5.321081%\n",
      "[libx264 @ 0x5d897e66e900] frame I:10    Avg QP:16.80  size: 77684\n",
      "[libx264 @ 0x5d897e66e900] frame P:84    Avg QP:19.46  size: 12286\n",
      "[libx264 @ 0x5d897e66e900] frame B:191   Avg QP:20.01  size:  3493\n",
      "[libx264 @ 0x5d897e66e900] consecutive B-frames:  8.1%  4.9%  8.4% 78.6%\n",
      "[libx264 @ 0x5d897e66e900] mb I  I16..4: 33.9% 52.4% 13.7%\n",
      "[libx264 @ 0x5d897e66e900] mb P  I16..4:  2.2%  6.1%  0.7%  P16..4: 16.0%  3.9%  1.8%  0.0%  0.0%    skip:69.4%\n",
      "[libx264 @ 0x5d897e66e900] mb B  I16..4:  0.2%  1.0%  0.0%  B16..8: 11.8%  1.1%  0.1%  direct: 0.6%  skip:85.2%  L0:42.5% L1:55.7% BI: 1.9%\n",
      "[libx264 @ 0x5d897e66e900] 8x8 transform intra:61.5% inter:88.7%\n",
      "[libx264 @ 0x5d897e66e900] coded y,uvDC,uvAC intra: 52.9% 63.6% 21.3% inter: 3.7% 7.1% 0.1%\n",
      "[libx264 @ 0x5d897e66e900] i16 v,h,dc,p: 27% 46%  8% 19%\n",
      "[libx264 @ 0x5d897e66e900] i8 v,h,dc,ddl,ddr,vr,hd,vl,hu: 19% 24% 16%  6%  6%  6%  7%  7%  9%\n",
      "[libx264 @ 0x5d897e66e900] i4 v,h,dc,ddl,ddr,vr,hd,vl,hu: 27% 29% 12%  5%  7%  5%  6%  4%  4%\n",
      "[libx264 @ 0x5d897e66e900] i8c dc,h,v,p: 47% 28% 14% 11%\n",
      "[libx264 @ 0x5d897e66e900] Weighted P-Frames: Y:0.0% UV:0.0%\n",
      "[libx264 @ 0x5d897e66e900] ref P L0: 77.9%  9.5%  9.4%  3.2%\n",
      "[libx264 @ 0x5d897e66e900] ref B L0: 94.1%  5.1%  0.9%\n",
      "[libx264 @ 0x5d897e66e900] ref B L1: 97.6%  2.4%\n",
      "[libx264 @ 0x5d897e66e900] kb/s:2085.04\n",
      "[aac @ 0x5d897e63b980] Qavg: 30989.316\n",
      "ffmpeg version 6.0-6ubuntu1.1 Copyright (c) 2000-2023 the FFmpeg developers\n",
      "  built with gcc 13 (Ubuntu 13.2.0-4ubuntu3)\n",
      "  configuration: --prefix=/usr --extra-version=6ubuntu1.1 --toolchain=hardened --libdir=/usr/lib/x86_64-linux-gnu --incdir=/usr/include/x86_64-linux-gnu --arch=amd64 --enable-gpl --disable-stripping --enable-gnutls --enable-ladspa --enable-libaom --enable-libass --enable-libbluray --enable-libbs2b --enable-libcaca --enable-libcdio --enable-libcodec2 --enable-libdav1d --enable-libflite --enable-libfontconfig --enable-libfreetype --enable-libfribidi --enable-libglslang --enable-libgme --enable-libgsm --enable-libjack --enable-libmp3lame --enable-libmysofa --enable-libopenjpeg --enable-libopenmpt --enable-libopus --enable-libpulse --enable-librabbitmq --enable-librist --enable-librubberband --enable-libshine --enable-libsnappy --enable-libsoxr --enable-libspeex --enable-libsrt --enable-libssh --enable-libsvtav1 --enable-libtheora --enable-libtwolame --enable-libvidstab --enable-libvorbis --enable-libvpx --enable-libwebp --enable-libx265 --enable-libxml2 --enable-libxvid --enable-libzimg --enable-libzmq --enable-libzvbi --enable-lv2 --enable-omx --enable-openal --enable-opencl --enable-opengl --enable-sdl2 --disable-sndio --enable-libjxl --enable-pocketsphinx --enable-librsvg --enable-libvpl --disable-libmfx --enable-libdc1394 --enable-libdrm --enable-libiec61883 --enable-chromaprint --enable-frei0r --enable-libx264 --enable-libplacebo --enable-librav1e --enable-shared\n",
      "  libavutil      58.  2.100 / 58.  2.100\n",
      "  libavcodec     60.  3.100 / 60.  3.100\n",
      "  libavformat    60.  3.100 / 60.  3.100\n",
      "  libavdevice    60.  1.100 / 60.  1.100\n",
      "  libavfilter     9.  3.100 /  9.  3.100\n",
      "  libswscale      7.  1.100 /  7.  1.100\n",
      "  libswresample   4. 10.100 /  4. 10.100\n",
      "  libpostproc    57.  1.100 / 57.  1.100\n",
      "Input #0, mov,mp4,m4a,3gp,3g2,mj2, from 'deleted_15_frames.mp4':\n",
      "  Metadata:\n",
      "    major_brand     : isom\n",
      "    minor_version   : 512\n",
      "    compatible_brands: isomiso2avc1mp41\n",
      "    encoder         : https://clipchamp.com\n",
      "    comment         : Create videos with https://clipchamp.com/en/video-editor - free online video editor, video compressor, video converter.\n",
      "  Duration: 00:00:22.33, start: 0.000000, bitrate: 11664 kb/s\n",
      "  Stream #0:0[0x1](und): Video: h264 (Constrained Baseline) (avc1 / 0x31637661), yuv420p(progressive), 1920x1080 [SAR 1:1 DAR 16:9], 11464 kb/s, 30 fps, 30 tbr, 15360 tbn (default)\n",
      "    Metadata:\n",
      "      handler_name    : VideoHandler\n",
      "      vendor_id       : [0][0][0][0]\n",
      "  Stream #0:1[0x2](und): Audio: aac (LC) (mp4a / 0x6134706D), 44100 Hz, stereo, fltp, 192 kb/s (default)\n",
      "    Metadata:\n",
      "      handler_name    : SoundHandler\n",
      "      vendor_id       : [0][0][0][0]\n",
      "Stream mapping:\n",
      "  Stream #0:0 -> #0:0 (h264 (native) -> h264 (libx264))\n",
      "  Stream #0:1 -> #0:1 (aac (native) -> aac (native))\n",
      "Press [q] to stop, [?] for help\n",
      "[libx264 @ 0x56f210268900] using SAR=1/1\n",
      "[libx264 @ 0x56f210268900] using cpu capabilities: MMX2 SSE2Fast SSSE3 SSE4.2 AVX FMA3 BMI2 AVX2\n",
      "[libx264 @ 0x56f210268900] profile High, level 4.0, 4:2:0, 8-bit\n",
      "Output #0, mpegts, to 'video1/segment_1.ts':\n",
      "  Metadata:\n",
      "    major_brand     : isom\n",
      "    minor_version   : 512\n",
      "    compatible_brands: isomiso2avc1mp41\n",
      "    comment         : Create videos with https://clipchamp.com/en/video-editor - free online video editor, video compressor, video converter.\n",
      "    encoder         : Lavf60.3.100\n",
      "  Stream #0:0(und): Video: h264, yuv420p(progressive), 1920x1080 [SAR 1:1 DAR 16:9], q=2-31, 30 fps, 90k tbn (default)\n",
      "    Metadata:\n",
      "      handler_name    : VideoHandler\n",
      "      vendor_id       : [0][0][0][0]\n",
      "      encoder         : Lavc60.3.100 libx264\n",
      "    Side data:\n",
      "      cpb: bitrate max/min/avg: 0/0/0 buffer size: 0 vbv_delay: N/A\n",
      "  Stream #0:1(und): Audio: aac (LC), 44100 Hz, stereo, fltp, 128 kb/s (default)\n",
      "    Metadata:\n",
      "      handler_name    : SoundHandler\n",
      "      vendor_id       : [0][0][0][0]\n",
      "      encoder         : Lavc60.3.100 aac\n",
      "frame=  300 fps= 36 q=-1.0 Lsize=    2185kB time=00:00:09.98 bitrate=1793.0kbits/s speed=1.21x    \n",
      "video:1956kB audio:102kB subtitle:0kB other streams:0kB global headers:0kB muxing overhead: 6.177899%\n",
      "[libx264 @ 0x56f210268900] frame I:10    Avg QP:16.15  size: 78285\n",
      "[libx264 @ 0x56f210268900] frame P:80    Avg QP:18.75  size:  9188\n",
      "[libx264 @ 0x56f210268900] frame B:210   Avg QP:20.12  size:  2309\n",
      "[libx264 @ 0x56f210268900] consecutive B-frames:  6.3%  0.7%  1.0% 92.0%\n",
      "[libx264 @ 0x56f210268900] mb I  I16..4: 38.2% 49.9% 11.9%\n",
      "[libx264 @ 0x56f210268900] mb P  I16..4:  1.8%  3.3%  0.2%  P16..4: 14.8%  3.2%  1.8%  0.0%  0.0%    skip:74.8%\n",
      "[libx264 @ 0x56f210268900] mb B  I16..4:  0.2%  0.5%  0.0%  B16..8: 10.1%  0.6%  0.1%  direct: 0.4%  skip:88.1%  L0:39.3% L1:59.3% BI: 1.4%\n",
      "[libx264 @ 0x56f210268900] 8x8 transform intra:55.6% inter:90.2%\n",
      "[libx264 @ 0x56f210268900] coded y,uvDC,uvAC intra: 47.3% 64.5% 29.0% inter: 2.6% 5.9% 0.0%\n",
      "[libx264 @ 0x56f210268900] i16 v,h,dc,p: 33% 43%  7% 17%\n",
      "[libx264 @ 0x56f210268900] i8 v,h,dc,ddl,ddr,vr,hd,vl,hu: 16% 26% 20%  5%  6%  6%  6%  7%  8%\n",
      "[libx264 @ 0x56f210268900] i4 v,h,dc,ddl,ddr,vr,hd,vl,hu: 30% 32% 14%  4%  5%  4%  4%  3%  3%\n",
      "[libx264 @ 0x56f210268900] i8c dc,h,v,p: 47% 31% 11% 11%\n",
      "[libx264 @ 0x56f210268900] Weighted P-Frames: Y:0.0% UV:0.0%\n",
      "[libx264 @ 0x56f210268900] ref P L0: 72.3%  8.9% 14.3%  4.4%\n",
      "[libx264 @ 0x56f210268900] ref B L0: 94.0%  5.0%  1.0%\n",
      "[libx264 @ 0x56f210268900] ref B L1: 97.5%  2.5%\n",
      "[libx264 @ 0x56f210268900] kb/s:1602.28\n",
      "[aac @ 0x56f210235980] Qavg: 23052.777\n",
      "ffmpeg version 6.0-6ubuntu1.1 Copyright (c) 2000-2023 the FFmpeg developers\n",
      "  built with gcc 13 (Ubuntu 13.2.0-4ubuntu3)\n",
      "  configuration: --prefix=/usr --extra-version=6ubuntu1.1 --toolchain=hardened --libdir=/usr/lib/x86_64-linux-gnu --incdir=/usr/include/x86_64-linux-gnu --arch=amd64 --enable-gpl --disable-stripping --enable-gnutls --enable-ladspa --enable-libaom --enable-libass --enable-libbluray --enable-libbs2b --enable-libcaca --enable-libcdio --enable-libcodec2 --enable-libdav1d --enable-libflite --enable-libfontconfig --enable-libfreetype --enable-libfribidi --enable-libglslang --enable-libgme --enable-libgsm --enable-libjack --enable-libmp3lame --enable-libmysofa --enable-libopenjpeg --enable-libopenmpt --enable-libopus --enable-libpulse --enable-librabbitmq --enable-librist --enable-librubberband --enable-libshine --enable-libsnappy --enable-libsoxr --enable-libspeex --enable-libsrt --enable-libssh --enable-libsvtav1 --enable-libtheora --enable-libtwolame --enable-libvidstab --enable-libvorbis --enable-libvpx --enable-libwebp --enable-libx265 --enable-libxml2 --enable-libxvid --enable-libzimg --enable-libzmq --enable-libzvbi --enable-lv2 --enable-omx --enable-openal --enable-opencl --enable-opengl --enable-sdl2 --disable-sndio --enable-libjxl --enable-pocketsphinx --enable-librsvg --enable-libvpl --disable-libmfx --enable-libdc1394 --enable-libdrm --enable-libiec61883 --enable-chromaprint --enable-frei0r --enable-libx264 --enable-libplacebo --enable-librav1e --enable-shared\n",
      "  libavutil      58.  2.100 / 58.  2.100\n",
      "  libavcodec     60.  3.100 / 60.  3.100\n",
      "  libavformat    60.  3.100 / 60.  3.100\n",
      "  libavdevice    60.  1.100 / 60.  1.100\n",
      "  libavfilter     9.  3.100 /  9.  3.100\n",
      "  libswscale      7.  1.100 /  7.  1.100\n",
      "  libswresample   4. 10.100 /  4. 10.100\n",
      "  libpostproc    57.  1.100 / 57.  1.100\n",
      "Input #0, mov,mp4,m4a,3gp,3g2,mj2, from 'deleted_15_frames.mp4':\n",
      "  Metadata:\n",
      "    major_brand     : isom\n",
      "    minor_version   : 512\n",
      "    compatible_brands: isomiso2avc1mp41\n",
      "    encoder         : https://clipchamp.com\n",
      "    comment         : Create videos with https://clipchamp.com/en/video-editor - free online video editor, video compressor, video converter.\n",
      "  Duration: 00:00:22.33, start: 0.000000, bitrate: 11664 kb/s\n",
      "  Stream #0:0[0x1](und): Video: h264 (Constrained Baseline) (avc1 / 0x31637661), yuv420p(progressive), 1920x1080 [SAR 1:1 DAR 16:9], 11464 kb/s, 30 fps, 30 tbr, 15360 tbn (default)\n",
      "    Metadata:\n",
      "      handler_name    : VideoHandler\n",
      "      vendor_id       : [0][0][0][0]\n",
      "  Stream #0:1[0x2](und): Audio: aac (LC) (mp4a / 0x6134706D), 44100 Hz, stereo, fltp, 192 kb/s (default)\n",
      "    Metadata:\n",
      "      handler_name    : SoundHandler\n",
      "      vendor_id       : [0][0][0][0]\n",
      "Stream mapping:\n",
      "  Stream #0:0 -> #0:0 (h264 (native) -> h264 (libx264))\n",
      "  Stream #0:1 -> #0:1 (aac (native) -> aac (native))\n",
      "Press [q] to stop, [?] for help\n",
      "[libx264 @ 0x62828045f900] using SAR=1/1\n",
      "[libx264 @ 0x62828045f900] using cpu capabilities: MMX2 SSE2Fast SSSE3 SSE4.2 AVX FMA3 BMI2 AVX2\n",
      "[libx264 @ 0x62828045f900] profile High, level 4.0, 4:2:0, 8-bit\n",
      "Output #0, mpegts, to 'video1/segment_2.ts':\n",
      "  Metadata:\n",
      "    major_brand     : isom\n",
      "    minor_version   : 512\n",
      "    compatible_brands: isomiso2avc1mp41\n",
      "    comment         : Create videos with https://clipchamp.com/en/video-editor - free online video editor, video compressor, video converter.\n",
      "    encoder         : Lavf60.3.100\n",
      "  Stream #0:0(und): Video: h264, yuv420p(progressive), 1920x1080 [SAR 1:1 DAR 16:9], q=2-31, 30 fps, 90k tbn (default)\n",
      "    Metadata:\n",
      "      handler_name    : VideoHandler\n",
      "      vendor_id       : [0][0][0][0]\n",
      "      encoder         : Lavc60.3.100 libx264\n",
      "    Side data:\n",
      "      cpb: bitrate max/min/avg: 0/0/0 buffer size: 0 vbv_delay: N/A\n",
      "  Stream #0:1(und): Audio: aac (LC), 44100 Hz, stereo, fltp, 128 kb/s (default)\n",
      "    Metadata:\n",
      "      handler_name    : SoundHandler\n",
      "      vendor_id       : [0][0][0][0]\n",
      "      encoder         : Lavc60.3.100 aac\n",
      "frame=   85 fps= 38 q=-1.0 Lsize=     335kB time=00:00:02.83 bitrate= 967.3kbits/s speed=1.27x    \n",
      "video:304kB audio:1kB subtitle:0kB other streams:0kB global headers:0kB muxing overhead: 9.633973%\n",
      "[libx264 @ 0x62828045f900] frame I:3     Avg QP:14.86  size: 83407\n",
      "[libx264 @ 0x62828045f900] frame P:22    Avg QP:16.92  size:  2250\n",
      "[libx264 @ 0x62828045f900] frame B:60    Avg QP:16.00  size:   199\n",
      "[libx264 @ 0x62828045f900] consecutive B-frames:  5.9%  0.0%  0.0% 94.1%\n",
      "[libx264 @ 0x62828045f900] mb I  I16..4: 39.2% 43.1% 17.7%\n",
      "[libx264 @ 0x62828045f900] mb P  I16..4:  0.6%  0.1%  0.1%  P16..4:  6.3%  0.8%  0.7%  0.0%  0.0%    skip:91.4%\n",
      "[libx264 @ 0x62828045f900] mb B  I16..4:  0.0%  0.0%  0.0%  B16..8:  2.1%  0.0%  0.0%  direct: 0.0%  skip:97.8%  L0:16.5% L1:83.5% BI: 0.0%\n",
      "[libx264 @ 0x62828045f900] 8x8 transform intra:41.7% inter:87.6%\n",
      "[libx264 @ 0x62828045f900] coded y,uvDC,uvAC intra: 48.4% 63.7% 48.4% inter: 0.4% 1.5% 0.0%\n",
      "[libx264 @ 0x62828045f900] i16 v,h,dc,p: 36% 46%  7% 11%\n",
      "[libx264 @ 0x62828045f900] i8 v,h,dc,ddl,ddr,vr,hd,vl,hu: 31% 29% 13%  3%  4%  4%  5%  5%  7%\n",
      "[libx264 @ 0x62828045f900] i4 v,h,dc,ddl,ddr,vr,hd,vl,hu: 36% 36% 14%  2%  3%  2%  3%  2%  2%\n",
      "[libx264 @ 0x62828045f900] i8c dc,h,v,p: 46% 35%  8% 11%\n",
      "[libx264 @ 0x62828045f900] Weighted P-Frames: Y:0.0% UV:0.0%\n",
      "[libx264 @ 0x62828045f900] ref P L0: 86.6%  1.5%  8.0%  4.0%\n",
      "[libx264 @ 0x62828045f900] ref B L0: 73.8% 25.0%  1.2%\n",
      "[libx264 @ 0x62828045f900] ref B L1: 97.8%  2.2%\n",
      "[libx264 @ 0x62828045f900] kb/s:880.03\n",
      "[aac @ 0x62828042c980] Qavg: 65536.000\n"
     ]
    }
   ],
   "source": [
    "output_dir=VIDEO_ID\n",
    "final_output_m3u8 = os.path.join(output_dir, \"playlist.m3u8\").replace(\"\\\\\", \"/\")\n",
    "print(new_length_of_streams)\n",
    "create_combined_hls_stream(EDITED_VIDEO_NAME, new_length_of_streams, fps, output_dir, final_output_m3u8)"
   ]
  },
  {
   "cell_type": "code",
   "execution_count": 21,
   "metadata": {},
   "outputs": [],
   "source": [
    "import boto3\n",
    "import os\n",
    "from dotenv import load_dotenv\n",
    "load_dotenv()\n",
    "\n",
    "s3_client = boto3.client(\n",
    "    's3',\n",
    "    aws_access_key_id=os.getenv(\"AWS_ACCESS_KEY_ID\"),\n",
    "    aws_secret_access_key=os.getenv(\"AWS_ACCESS_KEY_SECRET\"),\n",
    "    region_name=\"us-east-1\"\n",
    ")\n",
    "\n",
    "def upload_segment(segment_number):\n",
    "    print(\"Upload file\",segment_number)\n",
    "    # S3 client setup with credentials\n",
    "    \n",
    "    # Construct the file name based on segment number\n",
    "    file_name = f\"segment_{segment_number}.ts\"\n",
    "    file_path = os.path.join(output_dir, file_name)\n",
    "    print(file_path)\n",
    "    # Check if the file exists\n",
    "    if not os.path.isfile(file_path):\n",
    "        print(f\"File {file_name} does not exist in {output_dir}\")\n",
    "        return\n",
    "    \n",
    "    try:\n",
    "        # Upload to S3\n",
    "        s3_client.upload_file(file_path, f\"videohlsstreams\", f\"{VIDEO_ID}/{file_name}\")\n",
    "        print(f\"Successfully uploaded {file_name} to S3\")\n",
    "    except Exception as e:\n",
    "        print(f\"Failed to upload {file_name}: {e}\")"
   ]
  },
  {
   "cell_type": "code",
   "execution_count": 22,
   "metadata": {},
   "outputs": [
    {
     "name": "stdout",
     "output_type": "stream",
     "text": [
      "Upload file 0\n",
      "video1/segment_0.ts\n",
      "Failed to upload segment_0.ts: Could not connect to the endpoint URL: \"https://videohlsstreams.s3.amazonaws.com/video1/segment_0.ts\"\n",
      "Upload file 1\n",
      "video1/segment_1.ts\n"
     ]
    },
    {
     "ename": "KeyboardInterrupt",
     "evalue": "",
     "output_type": "error",
     "traceback": [
      "\u001b[0;31m---------------------------------------------------------------------------\u001b[0m",
      "\u001b[0;31mKeyboardInterrupt\u001b[0m                         Traceback (most recent call last)",
      "Cell \u001b[0;32mIn[22], line 30\u001b[0m\n\u001b[1;32m     28\u001b[0m \u001b[38;5;28;01mif\u001b[39;00m INIT:\n\u001b[1;32m     29\u001b[0m     \u001b[38;5;28;01mfor\u001b[39;00m i \u001b[38;5;129;01min\u001b[39;00m \u001b[38;5;28mrange\u001b[39m(\u001b[38;5;241m0\u001b[39m, \u001b[38;5;28mlen\u001b[39m(new_length_of_streams)):\n\u001b[0;32m---> 30\u001b[0m         \u001b[43mupload_segment\u001b[49m\u001b[43m(\u001b[49m\u001b[43mi\u001b[49m\u001b[43m)\u001b[49m\n\u001b[1;32m     32\u001b[0m file_name \u001b[38;5;241m=\u001b[39m \u001b[38;5;124m\"\u001b[39m\u001b[38;5;124mplaylist.m3u8\u001b[39m\u001b[38;5;124m\"\u001b[39m\n\u001b[1;32m     33\u001b[0m file_path \u001b[38;5;241m=\u001b[39m os\u001b[38;5;241m.\u001b[39mpath\u001b[38;5;241m.\u001b[39mjoin(output_dir, file_name)\n",
      "Cell \u001b[0;32mIn[21], line 29\u001b[0m, in \u001b[0;36mupload_segment\u001b[0;34m(segment_number)\u001b[0m\n\u001b[1;32m     25\u001b[0m     \u001b[38;5;28;01mreturn\u001b[39;00m\n\u001b[1;32m     27\u001b[0m \u001b[38;5;28;01mtry\u001b[39;00m:\n\u001b[1;32m     28\u001b[0m     \u001b[38;5;66;03m# Upload to S3\u001b[39;00m\n\u001b[0;32m---> 29\u001b[0m     \u001b[43ms3_client\u001b[49m\u001b[38;5;241;43m.\u001b[39;49m\u001b[43mupload_file\u001b[49m\u001b[43m(\u001b[49m\u001b[43mfile_path\u001b[49m\u001b[43m,\u001b[49m\u001b[43m \u001b[49m\u001b[38;5;124;43mf\u001b[39;49m\u001b[38;5;124;43m\"\u001b[39;49m\u001b[38;5;124;43mvideohlsstreams\u001b[39;49m\u001b[38;5;124;43m\"\u001b[39;49m\u001b[43m,\u001b[49m\u001b[43m \u001b[49m\u001b[38;5;124;43mf\u001b[39;49m\u001b[38;5;124;43m\"\u001b[39;49m\u001b[38;5;132;43;01m{\u001b[39;49;00m\u001b[43mVIDEO_ID\u001b[49m\u001b[38;5;132;43;01m}\u001b[39;49;00m\u001b[38;5;124;43m/\u001b[39;49m\u001b[38;5;132;43;01m{\u001b[39;49;00m\u001b[43mfile_name\u001b[49m\u001b[38;5;132;43;01m}\u001b[39;49;00m\u001b[38;5;124;43m\"\u001b[39;49m\u001b[43m)\u001b[49m\n\u001b[1;32m     30\u001b[0m     \u001b[38;5;28mprint\u001b[39m(\u001b[38;5;124mf\u001b[39m\u001b[38;5;124m\"\u001b[39m\u001b[38;5;124mSuccessfully uploaded \u001b[39m\u001b[38;5;132;01m{\u001b[39;00mfile_name\u001b[38;5;132;01m}\u001b[39;00m\u001b[38;5;124m to S3\u001b[39m\u001b[38;5;124m\"\u001b[39m)\n\u001b[1;32m     31\u001b[0m \u001b[38;5;28;01mexcept\u001b[39;00m \u001b[38;5;167;01mException\u001b[39;00m \u001b[38;5;28;01mas\u001b[39;00m e:\n",
      "File \u001b[0;32m/usr/lib/python3/dist-packages/boto3/s3/inject.py:143\u001b[0m, in \u001b[0;36mupload_file\u001b[0;34m(self, Filename, Bucket, Key, ExtraArgs, Callback, Config)\u001b[0m\n\u001b[1;32m    108\u001b[0m \u001b[38;5;250m\u001b[39m\u001b[38;5;124;03m\"\"\"Upload a file to an S3 object.\u001b[39;00m\n\u001b[1;32m    109\u001b[0m \n\u001b[1;32m    110\u001b[0m \u001b[38;5;124;03mUsage::\u001b[39;00m\n\u001b[0;32m   (...)\u001b[0m\n\u001b[1;32m    140\u001b[0m \u001b[38;5;124;03m    transfer.\u001b[39;00m\n\u001b[1;32m    141\u001b[0m \u001b[38;5;124;03m\"\"\"\u001b[39;00m\n\u001b[1;32m    142\u001b[0m \u001b[38;5;28;01mwith\u001b[39;00m S3Transfer(\u001b[38;5;28mself\u001b[39m, Config) \u001b[38;5;28;01mas\u001b[39;00m transfer:\n\u001b[0;32m--> 143\u001b[0m     \u001b[38;5;28;01mreturn\u001b[39;00m \u001b[43mtransfer\u001b[49m\u001b[38;5;241;43m.\u001b[39;49m\u001b[43mupload_file\u001b[49m\u001b[43m(\u001b[49m\n\u001b[1;32m    144\u001b[0m \u001b[43m        \u001b[49m\u001b[43mfilename\u001b[49m\u001b[38;5;241;43m=\u001b[39;49m\u001b[43mFilename\u001b[49m\u001b[43m,\u001b[49m\n\u001b[1;32m    145\u001b[0m \u001b[43m        \u001b[49m\u001b[43mbucket\u001b[49m\u001b[38;5;241;43m=\u001b[39;49m\u001b[43mBucket\u001b[49m\u001b[43m,\u001b[49m\n\u001b[1;32m    146\u001b[0m \u001b[43m        \u001b[49m\u001b[43mkey\u001b[49m\u001b[38;5;241;43m=\u001b[39;49m\u001b[43mKey\u001b[49m\u001b[43m,\u001b[49m\n\u001b[1;32m    147\u001b[0m \u001b[43m        \u001b[49m\u001b[43mextra_args\u001b[49m\u001b[38;5;241;43m=\u001b[39;49m\u001b[43mExtraArgs\u001b[49m\u001b[43m,\u001b[49m\n\u001b[1;32m    148\u001b[0m \u001b[43m        \u001b[49m\u001b[43mcallback\u001b[49m\u001b[38;5;241;43m=\u001b[39;49m\u001b[43mCallback\u001b[49m\u001b[43m,\u001b[49m\n\u001b[1;32m    149\u001b[0m \u001b[43m    \u001b[49m\u001b[43m)\u001b[49m\n",
      "File \u001b[0;32m/usr/lib/python3/dist-packages/boto3/s3/transfer.py:292\u001b[0m, in \u001b[0;36mS3Transfer.upload_file\u001b[0;34m(self, filename, bucket, key, callback, extra_args)\u001b[0m\n\u001b[1;32m    288\u001b[0m future \u001b[38;5;241m=\u001b[39m \u001b[38;5;28mself\u001b[39m\u001b[38;5;241m.\u001b[39m_manager\u001b[38;5;241m.\u001b[39mupload(\n\u001b[1;32m    289\u001b[0m     filename, bucket, key, extra_args, subscribers\n\u001b[1;32m    290\u001b[0m )\n\u001b[1;32m    291\u001b[0m \u001b[38;5;28;01mtry\u001b[39;00m:\n\u001b[0;32m--> 292\u001b[0m     \u001b[43mfuture\u001b[49m\u001b[38;5;241;43m.\u001b[39;49m\u001b[43mresult\u001b[49m\u001b[43m(\u001b[49m\u001b[43m)\u001b[49m\n\u001b[1;32m    293\u001b[0m \u001b[38;5;66;03m# If a client error was raised, add the backwards compatibility layer\u001b[39;00m\n\u001b[1;32m    294\u001b[0m \u001b[38;5;66;03m# that raises a S3UploadFailedError. These specific errors were only\u001b[39;00m\n\u001b[1;32m    295\u001b[0m \u001b[38;5;66;03m# ever thrown for upload_parts but now can be thrown for any related\u001b[39;00m\n\u001b[1;32m    296\u001b[0m \u001b[38;5;66;03m# client error.\u001b[39;00m\n\u001b[1;32m    297\u001b[0m \u001b[38;5;28;01mexcept\u001b[39;00m ClientError \u001b[38;5;28;01mas\u001b[39;00m e:\n",
      "File \u001b[0;32m/usr/lib/python3/dist-packages/s3transfer/futures.py:106\u001b[0m, in \u001b[0;36mTransferFuture.result\u001b[0;34m(self)\u001b[0m\n\u001b[1;32m    104\u001b[0m \u001b[38;5;28;01mexcept\u001b[39;00m \u001b[38;5;167;01mKeyboardInterrupt\u001b[39;00m \u001b[38;5;28;01mas\u001b[39;00m e:\n\u001b[1;32m    105\u001b[0m     \u001b[38;5;28mself\u001b[39m\u001b[38;5;241m.\u001b[39mcancel()\n\u001b[0;32m--> 106\u001b[0m     \u001b[38;5;28;01mraise\u001b[39;00m e\n",
      "File \u001b[0;32m/usr/lib/python3/dist-packages/s3transfer/futures.py:103\u001b[0m, in \u001b[0;36mTransferFuture.result\u001b[0;34m(self)\u001b[0m\n\u001b[1;32m     98\u001b[0m \u001b[38;5;28;01mdef\u001b[39;00m \u001b[38;5;21mresult\u001b[39m(\u001b[38;5;28mself\u001b[39m):\n\u001b[1;32m     99\u001b[0m     \u001b[38;5;28;01mtry\u001b[39;00m:\n\u001b[1;32m    100\u001b[0m         \u001b[38;5;66;03m# Usually the result() method blocks until the transfer is done,\u001b[39;00m\n\u001b[1;32m    101\u001b[0m         \u001b[38;5;66;03m# however if a KeyboardInterrupt is raised we want want to exit\u001b[39;00m\n\u001b[1;32m    102\u001b[0m         \u001b[38;5;66;03m# out of this and propagate the exception.\u001b[39;00m\n\u001b[0;32m--> 103\u001b[0m         \u001b[38;5;28;01mreturn\u001b[39;00m \u001b[38;5;28;43mself\u001b[39;49m\u001b[38;5;241;43m.\u001b[39;49m\u001b[43m_coordinator\u001b[49m\u001b[38;5;241;43m.\u001b[39;49m\u001b[43mresult\u001b[49m\u001b[43m(\u001b[49m\u001b[43m)\u001b[49m\n\u001b[1;32m    104\u001b[0m     \u001b[38;5;28;01mexcept\u001b[39;00m \u001b[38;5;167;01mKeyboardInterrupt\u001b[39;00m \u001b[38;5;28;01mas\u001b[39;00m e:\n\u001b[1;32m    105\u001b[0m         \u001b[38;5;28mself\u001b[39m\u001b[38;5;241m.\u001b[39mcancel()\n",
      "File \u001b[0;32m/usr/lib/python3/dist-packages/s3transfer/futures.py:261\u001b[0m, in \u001b[0;36mTransferCoordinator.result\u001b[0;34m(self)\u001b[0m\n\u001b[1;32m    251\u001b[0m \u001b[38;5;250m\u001b[39m\u001b[38;5;124;03m\"\"\"Waits until TransferFuture is done and returns the result\u001b[39;00m\n\u001b[1;32m    252\u001b[0m \n\u001b[1;32m    253\u001b[0m \u001b[38;5;124;03mIf the TransferFuture succeeded, it will return the result. If the\u001b[39;00m\n\u001b[1;32m    254\u001b[0m \u001b[38;5;124;03mTransferFuture failed, it will raise the exception associated to the\u001b[39;00m\n\u001b[1;32m    255\u001b[0m \u001b[38;5;124;03mfailure.\u001b[39;00m\n\u001b[1;32m    256\u001b[0m \u001b[38;5;124;03m\"\"\"\u001b[39;00m\n\u001b[1;32m    257\u001b[0m \u001b[38;5;66;03m# Doing a wait() with no timeout cannot be interrupted in python2 but\u001b[39;00m\n\u001b[1;32m    258\u001b[0m \u001b[38;5;66;03m# can be interrupted in python3 so we just wait with the largest\u001b[39;00m\n\u001b[1;32m    259\u001b[0m \u001b[38;5;66;03m# possible value integer value, which is on the scale of billions of\u001b[39;00m\n\u001b[1;32m    260\u001b[0m \u001b[38;5;66;03m# years...\u001b[39;00m\n\u001b[0;32m--> 261\u001b[0m \u001b[38;5;28;43mself\u001b[39;49m\u001b[38;5;241;43m.\u001b[39;49m\u001b[43m_done_event\u001b[49m\u001b[38;5;241;43m.\u001b[39;49m\u001b[43mwait\u001b[49m\u001b[43m(\u001b[49m\u001b[43mMAXINT\u001b[49m\u001b[43m)\u001b[49m\n\u001b[1;32m    263\u001b[0m \u001b[38;5;66;03m# Once done waiting, raise an exception if present or return the\u001b[39;00m\n\u001b[1;32m    264\u001b[0m \u001b[38;5;66;03m# final result.\u001b[39;00m\n\u001b[1;32m    265\u001b[0m \u001b[38;5;28;01mif\u001b[39;00m \u001b[38;5;28mself\u001b[39m\u001b[38;5;241m.\u001b[39m_exception:\n",
      "File \u001b[0;32m/usr/lib/python3.11/threading.py:629\u001b[0m, in \u001b[0;36mEvent.wait\u001b[0;34m(self, timeout)\u001b[0m\n\u001b[1;32m    627\u001b[0m signaled \u001b[38;5;241m=\u001b[39m \u001b[38;5;28mself\u001b[39m\u001b[38;5;241m.\u001b[39m_flag\n\u001b[1;32m    628\u001b[0m \u001b[38;5;28;01mif\u001b[39;00m \u001b[38;5;129;01mnot\u001b[39;00m signaled:\n\u001b[0;32m--> 629\u001b[0m     signaled \u001b[38;5;241m=\u001b[39m \u001b[38;5;28;43mself\u001b[39;49m\u001b[38;5;241;43m.\u001b[39;49m\u001b[43m_cond\u001b[49m\u001b[38;5;241;43m.\u001b[39;49m\u001b[43mwait\u001b[49m\u001b[43m(\u001b[49m\u001b[43mtimeout\u001b[49m\u001b[43m)\u001b[49m\n\u001b[1;32m    630\u001b[0m \u001b[38;5;28;01mreturn\u001b[39;00m signaled\n",
      "File \u001b[0;32m/usr/lib/python3.11/threading.py:327\u001b[0m, in \u001b[0;36mCondition.wait\u001b[0;34m(self, timeout)\u001b[0m\n\u001b[1;32m    325\u001b[0m \u001b[38;5;28;01mtry\u001b[39;00m:    \u001b[38;5;66;03m# restore state no matter what (e.g., KeyboardInterrupt)\u001b[39;00m\n\u001b[1;32m    326\u001b[0m     \u001b[38;5;28;01mif\u001b[39;00m timeout \u001b[38;5;129;01mis\u001b[39;00m \u001b[38;5;28;01mNone\u001b[39;00m:\n\u001b[0;32m--> 327\u001b[0m         \u001b[43mwaiter\u001b[49m\u001b[38;5;241;43m.\u001b[39;49m\u001b[43macquire\u001b[49m\u001b[43m(\u001b[49m\u001b[43m)\u001b[49m\n\u001b[1;32m    328\u001b[0m         gotit \u001b[38;5;241m=\u001b[39m \u001b[38;5;28;01mTrue\u001b[39;00m\n\u001b[1;32m    329\u001b[0m     \u001b[38;5;28;01melse\u001b[39;00m:\n",
      "\u001b[0;31mKeyboardInterrupt\u001b[0m: "
     ]
    }
   ],
   "source": [
    "def create_bucket_if_not_exists(bucket_name, region=\"us-east-1\"):\n",
    "    try:\n",
    "        # Check if bucket exists\n",
    "        s3_client.head_bucket(Bucket=bucket_name)\n",
    "        print(f\"Bucket '{bucket_name}' already exists.\")\n",
    "    except s3_client.exceptions.ClientError as e:\n",
    "        error_code = int(e.response['Error']['Code'])\n",
    "        if error_code == 404:\n",
    "            # If bucket does not exist, create it\n",
    "            print(f\"Bucket '{bucket_name}' does not exist. Creating now...\")\n",
    "            if region == \"us-east-1\":\n",
    "                s3_client.create_bucket(Bucket=bucket_name)\n",
    "            else:\n",
    "                s3_client.create_bucket(\n",
    "                    Bucket=bucket_name,\n",
    "                    CreateBucketConfiguration={'LocationConstraint': region}\n",
    "                )\n",
    "            print(f\"Bucket '{bucket_name}' created successfully.\")\n",
    "        else:\n",
    "            raise e\n",
    "\n",
    "# create_bucket_if_not_exists(VIDEO_ID)\n",
    "\n",
    "for segment in changedSegments:\n",
    "    upload_segment(segment)\n",
    "\n",
    "INIT=True\n",
    "if INIT:\n",
    "    for i in range(0, len(new_length_of_streams)):\n",
    "        upload_segment(i)\n",
    "\n",
    "file_name = \"playlist.m3u8\"\n",
    "file_path = os.path.join(output_dir, file_name)\n",
    "print(file_path)\n",
    "s3_client.upload_file(file_path, f\"videohlsstreams\", f\"{VIDEO_ID}/{file_name}\")\n",
    "print(\"HLS file uploaded\")"
   ]
  },
  {
   "cell_type": "code",
   "execution_count": 88,
   "metadata": {},
   "outputs": [],
   "source": [
    "\n",
    "# For merging all the .ts file into mp4 again\n",
    "# To be done when merging\n",
    "\n",
    "# Directory containing your .ts files\n",
    "def create_video_list_file(videoId):\n",
    "    # Create the file list\n",
    "    directory = VIDEO_ID\n",
    "    with open(f'{videoId}/segments.txt', 'w') as f:\n",
    "        for filename in sorted(os.listdir(directory)):\n",
    "            if filename.endswith('.ts') and not filename.__contains__(\"merged\"):\n",
    "                f.write(f\"file '{os.path.join(directory, filename)}'\\n\")\n",
    "                \n",
    "def concatenate_ts_segments(video_list_file, videoId):\n",
    "    \"\"\"\n",
    "    Use FFmpeg to concatenate .ts segments into a single .ts file.\n",
    "    \"\"\"\n",
    "    # Create the video list file\n",
    "    # video_list_file = f'{videoId}.txt'\n",
    "    # create_video_list_file(videoId)\n",
    "\n",
    "    if os.path.isfile(f\"{videoId}/merged.ts\"):\n",
    "        os.remove(f\"{videoId}/merged.ts\")\n",
    "        print(f\"Removed existing file: {videoId}/merged.ts\")\n",
    "\n",
    "    # FFmpeg command to concatenate .ts files\n",
    "    cmd = [\n",
    "        'ffmpeg', '-f', 'concat', '-safe', '0',\n",
    "        '-i', video_list_file,  # Input file list\n",
    "        '-c', 'copy',           # Copy streams without re-encoding\n",
    "        f'{videoId}/merged.ts'          # Output file\n",
    "    ]\n",
    "\n",
    "    # Run the FFmpeg command\n",
    "    try:\n",
    "        subprocess.run(cmd, check=True)\n",
    "        print(f\"Concatenation successful! Output saved as {videoId}.ts\")\n",
    "    except subprocess.CalledProcessError as e:\n",
    "        print(f\"Error during concatenation: {e}\")"
   ]
  },
  {
   "cell_type": "code",
   "execution_count": 90,
   "metadata": {},
   "outputs": [],
   "source": [
    "def convert_ts_to_mp4(input_ts_file, output_mp4_file):\n",
    "    if os.path.isfile(f\"{VIDEO_ID}/final.mp4\"):\n",
    "        os.remove(f\"{VIDEO_ID}/final.mp4\")\n",
    "        print(f\"Removed existing file: {VIDEO_ID}/final.mp4\")\n",
    "\n",
    "    \"\"\"\n",
    "    Convert .ts file to .mp4 using FFmpeg.\n",
    "    \"\"\"\n",
    "    cmd = [\n",
    "        'ffmpeg', '-i', input_ts_file,  # Input .ts file\n",
    "        '-c', 'copy',                   # Copy video and audio streams without re-encoding\n",
    "        output_mp4_file                 # Output .mp4 file\n",
    "    ]\n",
    "\n",
    "    # Run the FFmpeg command\n",
    "    try:\n",
    "        subprocess.run(cmd, check=True)\n",
    "        print(f\"Conversion successful! Output saved as {output_mp4_file}\")\n",
    "    except subprocess.CalledProcessError as e:\n",
    "        print(f\"Error during conversion: {e}\")"
   ]
  },
  {
   "cell_type": "code",
   "execution_count": 91,
   "metadata": {},
   "outputs": [
    {
     "name": "stdout",
     "output_type": "stream",
     "text": [
      "Removed existing file: video1/merged.ts\n"
     ]
    },
    {
     "name": "stderr",
     "output_type": "stream",
     "text": [
      "ffmpeg version 6.0-6ubuntu1.1 Copyright (c) 2000-2023 the FFmpeg developers\n",
      "  built with gcc 13 (Ubuntu 13.2.0-4ubuntu3)\n",
      "  configuration: --prefix=/usr --extra-version=6ubuntu1.1 --toolchain=hardened --libdir=/usr/lib/x86_64-linux-gnu --incdir=/usr/include/x86_64-linux-gnu --arch=amd64 --enable-gpl --disable-stripping --enable-gnutls --enable-ladspa --enable-libaom --enable-libass --enable-libbluray --enable-libbs2b --enable-libcaca --enable-libcdio --enable-libcodec2 --enable-libdav1d --enable-libflite --enable-libfontconfig --enable-libfreetype --enable-libfribidi --enable-libglslang --enable-libgme --enable-libgsm --enable-libjack --enable-libmp3lame --enable-libmysofa --enable-libopenjpeg --enable-libopenmpt --enable-libopus --enable-libpulse --enable-librabbitmq --enable-librist --enable-librubberband --enable-libshine --enable-libsnappy --enable-libsoxr --enable-libspeex --enable-libsrt --enable-libssh --enable-libsvtav1 --enable-libtheora --enable-libtwolame --enable-libvidstab --enable-libvorbis --enable-libvpx --enable-libwebp --enable-libx265 --enable-libxml2 --enable-libxvid --enable-libzimg --enable-libzmq --enable-libzvbi --enable-lv2 --enable-omx --enable-openal --enable-opencl --enable-opengl --enable-sdl2 --disable-sndio --enable-libjxl --enable-pocketsphinx --enable-librsvg --enable-libvpl --disable-libmfx --enable-libdc1394 --enable-libdrm --enable-libiec61883 --enable-chromaprint --enable-frei0r --enable-libx264 --enable-libplacebo --enable-librav1e --enable-shared\n",
      "  libavutil      58.  2.100 / 58.  2.100\n",
      "  libavcodec     60.  3.100 / 60.  3.100\n",
      "  libavformat    60.  3.100 / 60.  3.100\n",
      "  libavdevice    60.  1.100 / 60.  1.100\n",
      "  libavfilter     9.  3.100 /  9.  3.100\n",
      "  libswscale      7.  1.100 /  7.  1.100\n",
      "  libswresample   4. 10.100 /  4. 10.100\n",
      "  libpostproc    57.  1.100 / 57.  1.100\n",
      "Input #0, concat, from 'video1.txt':\n",
      "  Duration: N/A, start: 0.000000, bitrate: N/A\n",
      "  Stream #0:0: Video: h264 (High) ([27][0][0][0] / 0x001B), yuv420p(progressive), 1920x1080 [SAR 1:1 DAR 16:9], 30 fps, 30 tbr, 90k tbn\n",
      "  Stream #0:1(und): Audio: aac (LC) ([15][0][0][0] / 0x000F), 44100 Hz, stereo, fltp, 4 kb/s\n",
      "Output #0, mpegts, to 'video1/merged.ts':\n",
      "  Metadata:\n",
      "    encoder         : Lavf60.3.100\n",
      "  Stream #0:0: Video: h264 (High) ([27][0][0][0] / 0x001B), yuv420p(progressive), 1920x1080 [SAR 1:1 DAR 16:9], q=2-31, 30 fps, 30 tbr, 90k tbn\n",
      "  Stream #0:1(und): Audio: aac (LC) ([15][0][0][0] / 0x000F), 44100 Hz, stereo, fltp, 4 kb/s\n",
      "Stream mapping:\n",
      "  Stream #0:0 -> #0:0 (copy)\n",
      "  Stream #0:1 -> #0:1 (copy)\n",
      "Press [q] to stop, [?] for help\n",
      "frame=  670 fps=0.0 q=-1.0 Lsize=    5157kB time=00:00:22.39 bitrate=1886.6kbits/s speed= 113x    \n",
      "video:4681kB audio:195kB subtitle:0kB other streams:0kB global headers:0kB muxing overhead: 5.756845%\n"
     ]
    },
    {
     "name": "stdout",
     "output_type": "stream",
     "text": [
      "Concatenation successful! Output saved as video1.ts\n",
      "Removed existing file: video1/final.mp4\n"
     ]
    },
    {
     "name": "stderr",
     "output_type": "stream",
     "text": [
      "ffmpeg version 6.0-6ubuntu1.1 Copyright (c) 2000-2023 the FFmpeg developers\n",
      "  built with gcc 13 (Ubuntu 13.2.0-4ubuntu3)\n",
      "  configuration: --prefix=/usr --extra-version=6ubuntu1.1 --toolchain=hardened --libdir=/usr/lib/x86_64-linux-gnu --incdir=/usr/include/x86_64-linux-gnu --arch=amd64 --enable-gpl --disable-stripping --enable-gnutls --enable-ladspa --enable-libaom --enable-libass --enable-libbluray --enable-libbs2b --enable-libcaca --enable-libcdio --enable-libcodec2 --enable-libdav1d --enable-libflite --enable-libfontconfig --enable-libfreetype --enable-libfribidi --enable-libglslang --enable-libgme --enable-libgsm --enable-libjack --enable-libmp3lame --enable-libmysofa --enable-libopenjpeg --enable-libopenmpt --enable-libopus --enable-libpulse --enable-librabbitmq --enable-librist --enable-librubberband --enable-libshine --enable-libsnappy --enable-libsoxr --enable-libspeex --enable-libsrt --enable-libssh --enable-libsvtav1 --enable-libtheora --enable-libtwolame --enable-libvidstab --enable-libvorbis --enable-libvpx --enable-libwebp --enable-libx265 --enable-libxml2 --enable-libxvid --enable-libzimg --enable-libzmq --enable-libzvbi --enable-lv2 --enable-omx --enable-openal --enable-opencl --enable-opengl --enable-sdl2 --disable-sndio --enable-libjxl --enable-pocketsphinx --enable-librsvg --enable-libvpl --disable-libmfx --enable-libdc1394 --enable-libdrm --enable-libiec61883 --enable-chromaprint --enable-frei0r --enable-libx264 --enable-libplacebo --enable-librav1e --enable-shared\n",
      "  libavutil      58.  2.100 / 58.  2.100\n",
      "  libavcodec     60.  3.100 / 60.  3.100\n",
      "  libavformat    60.  3.100 / 60.  3.100\n",
      "  libavdevice    60.  1.100 / 60.  1.100\n",
      "  libavfilter     9.  3.100 /  9.  3.100\n",
      "  libswscale      7.  1.100 /  7.  1.100\n",
      "  libswresample   4. 10.100 /  4. 10.100\n",
      "  libpostproc    57.  1.100 / 57.  1.100\n",
      "Input #0, mpegts, from 'video1/merged.ts':\n",
      "  Duration: 00:00:22.40, start: 1.443444, bitrate: 1885 kb/s\n",
      "  Program 1 \n",
      "    Metadata:\n",
      "      service_name    : Service01\n",
      "      service_provider: FFmpeg\n",
      "  Stream #0:0[0x100]: Video: h264 (High) ([27][0][0][0] / 0x001B), yuv420p(progressive), 1920x1080 [SAR 1:1 DAR 16:9], 30 fps, 30 tbr, 90k tbn\n",
      "  Stream #0:1[0x101](und): Audio: aac (LC) ([15][0][0][0] / 0x000F), 44100 Hz, stereo, fltp, 68 kb/s\n",
      "Output #0, mp4, to 'video1/final.mp4':\n",
      "  Metadata:\n",
      "    encoder         : Lavf60.3.100\n",
      "  Stream #0:0: Video: h264 (High) (avc1 / 0x31637661), yuv420p(progressive), 1920x1080 [SAR 1:1 DAR 16:9], q=2-31, 30 fps, 30 tbr, 90k tbn\n",
      "  Stream #0:1(und): Audio: aac (LC) (mp4a / 0x6134706D), 44100 Hz, stereo, fltp, 68 kb/s\n",
      "Stream mapping:\n",
      "  Stream #0:0 -> #0:0 (copy)\n",
      "  Stream #0:1 -> #0:1 (copy)\n",
      "Press [q] to stop, [?] for help\n",
      "frame=    0 fps=0.0 q=-1.0 size=       0kB time=-00:00:00.04 bitrate=  -0.0kbits/s speed=N/A    \r"
     ]
    },
    {
     "name": "stdout",
     "output_type": "stream",
     "text": [
      "Conversion successful! Output saved as video1/final.mp4\n"
     ]
    },
    {
     "name": "stderr",
     "output_type": "stream",
     "text": [
      "frame=  670 fps=0.0 q=-1.0 Lsize=    4895kB time=00:00:22.39 bitrate=1790.9kbits/s speed= 131x    \n",
      "video:4681kB audio:195kB subtitle:0kB other streams:0kB global headers:0kB muxing overhead: 0.393303%\n"
     ]
    }
   ],
   "source": [
    "create_video_list_file(VIDEO_ID)\n",
    "concatenate_ts_segments(f'{VIDEO_ID}.txt', VIDEO_ID)\n",
    "convert_ts_to_mp4(f'{VIDEO_ID}/merged.ts', f'{VIDEO_ID}/final.mp4')"
   ]
  }
 ],
 "metadata": {
  "kernelspec": {
   "display_name": "usr",
   "language": "python",
   "name": "python3"
  },
  "language_info": {
   "codemirror_mode": {
    "name": "ipython",
    "version": 3
   },
   "file_extension": ".py",
   "mimetype": "text/x-python",
   "name": "python",
   "nbconvert_exporter": "python",
   "pygments_lexer": "ipython3",
   "version": "3.11.6"
  }
 },
 "nbformat": 4,
 "nbformat_minor": 2
}
